<?xml version="1.0" standalone="no"?>
<!DOCTYPE svg PUBLIC "-//W3C//DTD SVG 20010904//EN"
 "http://www.w3.org/TR/2001/REC-SVG-20010904/DTD/svg10.dtd">
<svg version="1.0" xmlns="http://www.w3.org/2000/svg"
 width="200.000000pt" height="200.000000pt" viewBox="0 0 200.000000 200.000000"
 preserveAspectRatio="xMidYMid meet">

<g transform="translate(0.000000,200.000000) scale(0.100000,-0.100000)"
fill="#000000" stroke="none">
<path d="M803 1653 l-173 -3 0 -190 0 -190 95 0 95 0 0 -90 0 -90 90 0 90 0 0
-100 0 -100 100 0 101 0 -3 98 -3 97 -90 1 -90 2 -3 96 -3 96 96 0 95 0 0 95
0 95 95 0 96 0 -3 93 -3 92 -92 3 -93 3 0 -96 0 -95 -95 0 -95 0 0 89 c0 72
-3 90 -16 95 -9 3 -16 5 -17 4 -1 -1 -80 -4 -174 -5z"/>
<path d="M209 694 c-12 -4 -20 -34 -33 -127 -9 -67 -16 -128 -16 -134 0 -14
146 -19 166 -5 34 22 44 90 18 117 -15 15 -15 17 0 28 25 18 33 89 12 106 -16
13 -118 24 -147 15z m119 -62 c5 -35 -15 -52 -64 -52 -47 0 -51 7 -38 58 6 20
12 23 53 20 39 -3 46 -6 49 -26z m-20 -96 c17 -10 15 -52 -4 -70 -9 -10 -33
-16 -61 -16 l-45 0 7 43 c4 23 9 45 11 49 5 8 76 4 92 -6z"/>
<path d="M1040 693 c0 -5 -9 -64 -19 -133 -10 -69 -17 -128 -15 -131 2 -4 28
-10 57 -13 91 -12 120 13 133 112 5 42 3 53 -15 71 -26 26 -37 26 -84 2 l-37
-19 5 22 c17 85 16 96 -5 96 -11 0 -20 -3 -20 -7z m113 -151 c-3 -79 -28 -106
-84 -95 -24 4 -25 7 -19 50 8 52 40 85 80 81 21 -3 25 -8 23 -36z"/>
<path d="M1710 695 c0 -12 -31 -233 -35 -252 -4 -18 -1 -23 14 -23 15 0 22 9
26 34 5 22 15 37 30 44 21 10 24 7 40 -34 12 -32 22 -44 37 -44 21 0 19 18 -9
74 -13 26 -13 30 5 50 11 11 25 31 31 44 10 19 9 22 -7 22 -10 0 -28 -12 -39
-27 -11 -16 -35 -36 -53 -47 -31 -18 -32 -18 -26 0 5 18 26 141 26 157 0 4 -9
7 -20 7 -11 0 -20 -2 -20 -5z"/>
<path d="M667 640 c-4 -17 -13 -30 -21 -30 -24 0 -30 -21 -7 -27 15 -4 20 -11
16 -27 -23 -116 -18 -136 36 -136 28 0 39 4 39 15 0 8 -9 15 -20 15 -27 0 -31
15 -22 75 7 47 9 50 40 53 43 4 44 32 1 32 -29 0 -30 2 -24 30 6 25 4 30 -13
30 -14 0 -21 -9 -25 -30z"/>
<path d="M845 610 c-34 -13 -46 -36 -52 -94 -7 -64 8 -90 56 -99 42 -9 101 3
101 19 0 10 -15 14 -55 14 -42 0 -57 4 -62 16 -8 21 14 34 57 34 51 0 80 24
80 65 0 24 -6 38 -19 45 -23 12 -77 12 -106 0z m73 -29 c27 -17 9 -45 -33 -52
-48 -8 -55 -5 -48 22 8 30 55 47 81 30z"/>
<path d="M1273 609 c-28 -15 -43 -58 -43 -126 0 -47 3 -55 24 -63 26 -9 63 -4
84 13 10 8 16 7 22 -3 19 -31 36 0 48 86 6 48 10 90 8 92 -11 10 -123 11 -143
1z m100 -31 c-2 -5 -3 -24 -3 -43 0 -45 -41 -87 -79 -83 -24 3 -26 6 -23 48 5
56 16 77 44 83 32 6 63 3 61 -5z"/>
<path d="M1545 600 c-36 -24 -46 -25 -39 -5 4 10 0 15 -14 15 -16 0 -20 -9
-26 -57 -4 -32 -9 -75 -13 -95 -5 -33 -3 -38 15 -38 17 0 21 9 27 59 7 63 20
82 68 100 37 14 42 -1 30 -90 -8 -62 -7 -69 8 -69 22 0 26 13 35 99 7 78 -2
101 -40 101 -11 0 -34 -9 -51 -20z"/>
<path d="M403 593 c3 -10 13 -53 22 -95 12 -56 21 -78 32 -78 24 0 10 -22 -25
-39 -40 -20 -44 -46 -4 -36 52 13 103 76 140 178 27 70 27 87 5 87 -13 0 -24
-20 -42 -76 -21 -67 -42 -97 -56 -82 -3 3 -10 31 -16 64 -15 86 -18 94 -40 94
-15 0 -19 -5 -16 -17z"/>
</g>
</svg>
